# xmcd
#
# Track frame offsets:
#	150
#	22131
#	40730
#	52919
#	67199
#	81289
#	97793
#	113620
#	132469
#	144607
#	164636
#	185361
#	197864
#	217825
#	235457
#	253099
#	269861
#	286473
#	301922
#
# Disc length: 4206 seconds
#
# Revision: 2
# Processed by: cddbd v1.5.2PL0 Copyright (c) Steve Scherf et al.
# Submitted via: audiograbber 1.83.01
#
DISCID=22106c13
DTITLE=Various Country Artists - Country Love CD1
DYEAR=2003
DGENRE=Country and Western
TTITLE0=Shania Twain - From This Moment On
TTITLE1=Leann Rimes - How Do I Live
TTITLE2=Patsy Cline - Crazy
TTITLE3=Bellamy Brothers - If I Said You Had A Beautiful Body
TTITLE4=Elvis Costello - A Good Year For The Roses
TTITLE5=K.D.Lang - Constant Craving
TTITLE6=Willie Nelson - Always On My Mind
TTITLE7=Nancy Griffith - From A Distance
TTITLE8=Charlie Rich - The Most Beautiful Girl In The World
TTITLE9=Lonestar - Amazed
TTITLE10=Lucinda Williams - Right In Time
TTITLE11=Jennifer Warnes - Right Time Of The Night
TTITLE12=Patti Smith - Sometimes Love Just Ain't Enough
TTITLE13=The Judds - Love Can Build A Bridge
TTITLE14=Kim Richey - Come Around
TTITLE15=Eva Cassidy - Songbird
TTITLE16=Emmylou Harris - Here, There And Everywhere
TTITLE17=Martina McBride - Independence Day
TTITLE18=Faron Young - It's Four In The Morning
EXTD=
EXTT0=
EXTT1=
EXTT2=
EXTT3=
EXTT4=
EXTT5=
EXTT6=
EXTT7=
EXTT8=
EXTT9=
EXTT10=
EXTT11=
EXTT12=
EXTT13=
EXTT14=
EXTT15=
EXTT16=
EXTT17=
EXTT18=
PLAYORDER=
